<svg width="22" height="21" viewBox="0 0 22 21" fill="none" xmlns="http://www.w3.org/2000/svg">
<path d="M21.4677 4.39466C21.1264 3.59716 20.6342 2.87448 20.0187 2.26707C19.4028 1.65785 18.6766 1.1737 17.8796 0.840972C17.0532 0.494579 16.1668 0.317276 15.2719 0.319354C14.0164 0.319354 12.7915 0.666243 11.727 1.32148C11.4724 1.47822 11.2305 1.65038 11.0013 1.83796C10.7721 1.65038 10.5301 1.47822 10.2755 1.32148C9.21101 0.666243 7.9861 0.319354 6.73063 0.319354C5.82659 0.319354 4.95057 0.494083 4.12293 0.840972C3.3233 1.17501 2.60261 1.65552 1.98379 2.26707C1.36751 2.8738 0.875206 3.59665 0.534783 4.39466C0.180808 5.22462 0 6.10598 0 7.01303C0 7.86868 0.173168 8.76032 0.516957 9.66737C0.804722 10.4254 1.21727 11.2117 1.74441 12.0057C2.57969 13.2622 3.7282 14.5726 5.15429 15.9011C7.51753 18.1032 9.85784 19.6244 9.95716 19.686L10.5607 20.0766C10.8281 20.2488 11.1719 20.2488 11.4393 20.0766L12.0428 19.686C12.1421 19.6218 14.4799 18.1032 16.8457 15.9011C18.2718 14.5726 19.4203 13.2622 20.2556 12.0057C20.7827 11.2117 21.1978 10.4254 21.483 9.66737C21.8268 8.76032 22 7.86868 22 7.01303C22.0025 6.10598 21.8217 5.22462 21.4677 4.39466Z" fill="#9E9E9E" fill-opacity="0.5"/>
</svg>
