<svg width="28" height="29" viewBox="0 0 28 29" fill="none" xmlns="http://www.w3.org/2000/svg">
<path d="M4.33377 6.55308L0.00976562 2.23042L1.89643 0.34375L6.2191 4.66775H26.5418C26.7496 4.66773 26.9545 4.7163 27.1403 4.80957C27.326 4.90284 27.4873 5.03824 27.6114 5.20494C27.7355 5.37165 27.8189 5.56506 27.855 5.76973C27.891 5.9744 27.8787 6.18467 27.8191 6.38375L24.6191 17.0504C24.5368 17.3252 24.368 17.5661 24.1379 17.7374C23.9078 17.9086 23.6286 18.0011 23.3418 18.0011H7.00043V20.6677H21.6671V23.3344H5.6671C5.31348 23.3344 4.97434 23.1939 4.72429 22.9439C4.47424 22.6938 4.33377 22.3547 4.33377 22.0011V6.55308ZM7.00043 7.33441V15.3344H22.3498L24.7498 7.33441H7.00043ZM6.33377 28.6677C5.80333 28.6677 5.29462 28.457 4.91955 28.082C4.54448 27.7069 4.33377 27.1982 4.33377 26.6677C4.33377 26.1373 4.54448 25.6286 4.91955 25.2535C5.29462 24.8785 5.80333 24.6677 6.33377 24.6677C6.8642 24.6677 7.37291 24.8785 7.74798 25.2535C8.12305 25.6286 8.33377 26.1373 8.33377 26.6677C8.33377 27.1982 8.12305 27.7069 7.74798 28.082C7.37291 28.457 6.8642 28.6677 6.33377 28.6677ZM22.3338 28.6677C21.8033 28.6677 21.2946 28.457 20.9196 28.082C20.5445 27.7069 20.3338 27.1982 20.3338 26.6677C20.3338 26.1373 20.5445 25.6286 20.9196 25.2535C21.2946 24.8785 21.8033 24.6677 22.3338 24.6677C22.8642 24.6677 23.3729 24.8785 23.748 25.2535C24.123 25.6286 24.3338 26.1373 24.3338 26.6677C24.3338 27.1982 24.123 27.7069 23.748 28.082C23.3729 28.457 22.8642 28.6677 22.3338 28.6677Z" fill="#464646"/>
</svg>
